<svg width="98px" height="123px" viewBox="0 0 98 123" version="1.1" xmlns="http://www.w3.org/2000/svg" xmlns:xlink="http://www.w3.org/1999/xlink">
    <g id="Page-1" stroke="none" stroke-width="1" fill="none" fill-rule="evenodd">
        <g id="Group" transform="translate(-0.000000, 0.000000)" fill-rule="nonzero">
            <path d="M48.5932,122.016479 C75.2274,122.016479 96.8187,116.834479 96.8187,110.442479 C96.8187,104.050479 75.2274,98.8688785 48.5932,98.8688785 C21.9589,98.8688785 0.367615,104.050479 0.367615,110.442479 C0.367615,116.834479 21.9589,122.016479 48.5932,122.016479 Z" id="Path" fill="#DAE2E8"></path>
            <path d="M80.5161,45.4084785 C80.5161,45.4084785 88.8643,31.4633785 94.9548,33.3708785 C101.045,35.2782785 90.3869,47.9345785 89.0743,52.2134785 L80.5161,45.4084785 Z" id="Path" fill="#4C6379"></path>
            <path d="M89.0742,53.3990785 C88.9692,53.3990785 88.8379,53.3732785 88.7329,53.3474785 C88.1029,53.1670785 87.7353,52.4968785 87.9191,51.8781785 C88.3392,50.4862785 89.573,48.4499785 90.9644,46.1300785 C93.0908,42.5986785 96.2936,37.2887785 95.4798,35.2523785 C95.3748,35.0203785 95.191,34.7110785 94.561,34.5048785 C90.3343,33.1902785 83.5612,42.5986785 81.5135,46.0011785 C81.1723,46.5682785 80.4372,46.7486785 79.8597,46.4135785 C79.2821,46.0784785 79.0983,45.3567785 79.4396,44.7896785 C79.5184,44.6350785 81.6186,41.1809785 84.5063,37.8815785 C88.6279,33.1902785 92.2508,31.2828785 95.2698,32.2365785 C96.7662,32.7005785 97.4225,33.6542785 97.685,34.3759785 C98.8926,37.4949785 95.7423,42.7017785 92.9858,47.3157785 C91.7257,49.4294785 90.5181,51.4142785 90.1768,52.5483785 C90.0456,53.0639785 89.573,53.3990785 89.0742,53.3990785 Z" id="Path" fill="#4C6379"></path>
            <path d="M82.4752,11.5328785 C84.0335,10.0027785 84.0086,7.4975885 82.4195,5.9373185 C80.8304,4.3770585 78.279,4.3525685 76.7207,5.8826385 C75.1623,7.4127085 75.1873,9.9179185 76.7764,11.4781785 C78.3654,13.0384785 80.9169,13.0629785 82.4752,11.5328785 Z" id="Path" fill="#4C6379"></path>
            <path d="M79.6759,13.8322785 C78.2583,13.8322785 76.9457,13.2909785 75.9481,12.3114785 C73.9004,10.3008785 73.8742,7.0530385 75.8956,5.0424685 C76.8669,4.0887385 78.1796,3.5732085 79.5447,3.5732085 C80.9623,3.5732085 82.2749,4.1145185 83.2725,5.0940185 C85.3202,7.1045885 85.3464,10.3781785 83.325,12.3629785 C82.3537,13.3166785 81.0411,13.8322785 79.6759,13.8322785 Z M79.5447,5.9188685 C78.8096,5.9188685 78.1008,6.2024085 77.602,6.7179385 C76.5257,7.7747785 76.5256,9.5533485 77.6545,10.6359785 C78.2058,11.1772785 78.9146,11.4607785 79.7022,11.4607785 C80.4373,11.4607785 81.1461,11.1772785 81.6449,10.6617785 C82.7212,9.6048985 82.7212,7.8263285 81.5924,6.7437185 C81.0148,6.2281885 80.306,5.9188685 79.5447,5.9188685 Z" id="Shape" fill="#4C6379"></path>
            <path d="M1.12875,77.8612785 C1.12875,101.756479 20.8443,109.050479 45.1802,109.050479 C69.5161,109.050479 89.2316,101.730479 89.2316,77.8612785 C89.2579,38.4490785 93.1695,1.0216385 55.2873,1.0216385 C7.29805,1.0216385 1.12875,38.4490785 1.12875,77.8612785 Z" id="Path" fill="#FFFFFF"></path>
            <path d="M87.3958,86.5493785 C87.3958,86.5493785 85.7945,110.933479 77.735,112.557479 C71.1194,113.898479 70.2006,104.438479 70.2006,104.438479 C78.1025,100.932479 84.1931,96.7310785 87.3958,86.5493785 Z" id="Path" fill="#4C6379"></path>
            <path d="M76.4207,113.870479 C75.0555,113.870479 73.8742,113.458479 72.8766,112.659479 C69.9626,110.313479 69.9363,105.390479 69.9363,105.184479 C69.9363,104.539479 70.4876,103.998479 71.1439,103.998479 C71.8003,103.998479 72.3516,104.539479 72.3516,105.184479 C72.3516,106.292479 72.7453,109.488479 74.4255,110.855479 C75.2131,111.473479 76.2369,111.654479 77.5233,111.396479 C80.2797,110.829479 82.8787,106.498479 84.7951,99.1524785 C86.344,93.2496785 86.9216,87.4499785 86.9216,87.3984785 C86.9741,86.7539785 87.5779,86.2642785 88.2342,86.3415785 C88.8905,86.3931785 89.3893,86.9859785 89.3105,87.6303785 C89.2843,87.8623785 88.7067,93.6620785 87.1053,99.7195785 C84.8739,108.251479 81.8024,112.942479 77.9695,113.716479 C77.4445,113.819479 76.9195,113.870479 76.4207,113.870479 Z" id="Path" fill="#4C6379"></path>
            <path d="M89.7305,46.3620785 C89.7305,46.3620785 80.8047,37.8300785 55.0511,38.6291785 C28.615,39.4282785 3.07145,51.0018785 3.07145,51.0018785 L1.3913,66.6739785 C1.3913,66.6739785 51.5858,47.3415785 89.4417,61.8795785 C89.4417,61.8795785 91.2006,52.9093785 89.7305,46.3620785 Z" id="Path" fill="#4C6379"></path>
            <path d="M1.65387,87.3983785 C0.525018,96.2396785 2.94023,111.757479 11.6823,113.612479 C20.2405,115.417479 21.0806,104.591479 21.9469,98.7657785 C23.6533,87.5014785 3.15025,75.7473785 1.65387,87.3983785 Z" id="Path" fill="#4C6379"></path>
            <path d="M45.2592,110.416479 C32.9731,110.416479 23.0497,108.535479 15.7253,104.849479 C15.1477,104.539479 14.9115,103.843479 15.2002,103.250479 C15.5153,102.683479 16.2241,102.451479 16.8279,102.735479 C23.7848,106.266479 33.3406,108.045479 45.2592,108.045479 C57.7815,108.045479 67.7312,106.060479 74.7668,102.168479 C75.3443,101.859479 76.0794,102.039479 76.3944,102.606479 C76.7095,103.173479 76.5257,103.895479 75.9482,104.204479 C68.545,108.328479 58.2278,110.416479 45.2592,110.416479 Z" id="Path" fill="#4C6379"></path>
            <path d="M69.0175,17.8795785 C68.8862,22.4161785 67.1273,25.6124785 72.8503,26.2311785 C78.1795,26.8239785 84.7688,28.2416785 85.1364,24.4009785 C85.5039,20.5602785 81.8286,13.2655785 74.2154,12.3375785 C70.9076,11.9251785 69.1225,14.0130785 69.0175,17.8795785 Z" id="Path" fill="#4C6379"></path>
            <path d="M80.516,24.2461785 C80.4373,25.1483785 81.0936,25.9474785 82.0387,26.0505785 C82.9575,26.1278785 83.7713,25.4834785 83.8763,24.5554785 C83.9551,23.6533785 83.2988,22.8542785 82.3537,22.7511785 C81.4349,22.6738785 80.6211,23.3439785 80.516,24.2461785 Z" id="Path" fill="#FFFFFF"></path>
            <path d="M51.5858,17.8794785 C51.5858,22.3645785 50.5357,25.9990785 43.0275,25.9990785 C36.8057,25.9990785 29.9538,26.3599785 29.9538,21.8748785 C29.9538,17.3897785 36.7532,10.9456785 42.9488,10.2754785 C51.4545,9.2959585 51.5858,13.3943785 51.5858,17.8794785 Z" id="Path" fill="#4C6379"></path>
            <path d="M47.2805,23.9885785 C48.3535,23.9885785 49.2232,23.1345785 49.2232,22.0811785 C49.2232,21.0276785 48.3535,20.1736785 47.2805,20.1736785 C46.2076,20.1736785 45.3379,21.0276785 45.3379,22.0811785 C45.3379,23.1345785 46.2076,23.9885785 47.2805,23.9885785 Z" id="Path" fill="#FFFFFF"></path>
            <path d="M67.416,33.6547785 C66.6547,33.6547785 65.7621,33.4227785 64.7908,32.7010785 C64.4495,32.4690785 64.397,32.0050785 64.6333,31.6699785 C64.8695,31.3348785 65.3421,31.2833785 65.6834,31.5153785 C67.3898,32.7783785 68.4661,31.8246785 68.4924,31.8246785 C68.8074,31.5410785 69.28,31.5668785 69.5425,31.8761785 C69.8313,32.1854785 69.805,32.6494785 69.49,32.9072785 C69.1487,33.2680785 68.3874,33.6547785 67.416,33.6547785 Z" id="Path" fill="#4C6379"></path>
            <path d="M63.0844,33.5256785 C61.273,33.5256785 60.2754,32.5461785 60.2229,32.4945785 C59.9342,32.2110785 59.9342,31.7470785 60.2229,31.4635785 C60.5117,31.1800785 60.9842,31.1800785 61.273,31.4635785 C61.3518,31.5150785 62.6119,32.6492785 64.9484,31.6181785 C65.3159,31.4635785 65.7622,31.6181785 65.946,31.9790785 C66.1035,32.3399785 65.946,32.7781785 65.5784,32.9585785 C64.6071,33.3709785 63.7933,33.5256785 63.0844,33.5256785 Z" id="Path" fill="#4C6379"></path>
            <path d="M7.29816,56.3380785 C7.29816,56.3380785 15.5414,70.3346785 21.6582,68.4787785 C27.7487,66.6228785 17.1953,53.8892785 15.9089,49.5845785 L7.29816,56.3380785 Z" id="Path" fill="#4C6379"></path>
            <path d="M20.4769,69.8191785 C17.7729,69.8191785 14.7014,67.8343785 11.2623,63.8647785 C8.40084,60.5653785 6.3269,57.0855785 6.24814,56.9309785 C5.90686,56.3638785 6.11688,55.6420785 6.69443,55.3069785 C7.27198,54.9718785 8.00705,55.1781785 8.34833,55.7451785 C8.37458,55.7709785 10.396,59.1992785 13.1263,62.3697785 C16.4341,66.1846785 19.3218,67.9632785 21.2907,67.3446785 C21.9208,67.1641785 22.1046,66.8548785 22.2096,66.6228785 C23.0234,64.5865785 19.8469,59.2507785 17.7729,55.6936785 C16.3815,53.3479785 15.1739,51.3116785 14.7539,49.9197785 C14.5701,49.3010785 14.9377,48.6308785 15.5677,48.4504785 C16.1978,48.2700785 16.8803,48.6308785 17.0641,49.2495785 C17.4054,50.3836785 18.5867,52.3942785 19.8469,54.5079785 C22.5771,59.1219785 25.7011,64.3545785 24.4673,67.4734785 C24.1785,68.1952785 23.5222,69.1489785 22.0258,69.6129785 C21.5008,69.7418785 21.002,69.8191785 20.4769,69.8191785 Z" id="Path" fill="#4C6379"></path>
            <path d="M65.2633,32.8556785 C65.027,32.8556785 64.817,32.7525785 64.6595,32.5463785 C64.4232,32.2112785 64.4757,31.7473785 64.817,31.5153785 C65.9721,30.6646785 65.2633,28.0612785 64.9482,27.2106785 C64.7907,26.8239785 65.0007,26.4115785 65.3683,26.2569785 C65.7621,26.1022785 66.1821,26.3084785 66.3396,26.6693785 C66.5234,27.1075785 67.9935,31.0255785 65.7095,32.7010785 C65.5783,32.8041785 65.4208,32.8556785 65.2633,32.8556785 Z" id="Path" fill="#4C6379"></path>
            <path d="M7.00938,97.6622785 C6.64184,97.6622785 6.30056,97.5075785 6.06429,97.2240785 C2.04768,92.1976785 0,85.7535785 0,78.0205785 C0,53.9195785 2.10019,27.2925785 17.7728,12.2390785 C22.0782,8.1148585 27.2762,4.9959085 33.288,2.9595685 C39.641,0.8201205 47.0705,-0.1593845 55.3924,0.0210508003 C64.0032,0.2272625 70.7501,2.1862685 76.0268,6.0269685 C80.8047,9.5325585 84.27,14.4816785 86.6065,21.2092785 C90.8856,33.5561785 90.7544,50.2335785 90.5968,67.8904785 C90.5706,71.1898785 90.5443,74.6180785 90.5443,78.0205785 C90.5443,85.1864785 88.7854,91.2954785 85.3201,96.1156785 C84.9263,96.6569785 84.1913,96.7858785 83.64,96.3991785 C83.0887,96.0125785 82.9574,95.2908785 83.3512,94.7495785 C86.5277,90.3159785 88.1554,84.6966785 88.1554,78.0205785 C88.1554,74.5923785 88.1816,71.1898785 88.2079,67.8646785 C88.3654,50.4139785 88.4967,33.9428785 84.3488,21.9567785 C79.8334,8.9397085 70.6188,2.7017985 55.3662,2.3667085 C39.6673,2.0316185 27.9325,5.7949785 19.453,13.9403785 C4.43665,28.3493785 2.38896,54.4351785 2.38896,78.0205785 C2.38896,85.2122785 4.25288,91.1665785 7.92821,95.7290785 C8.34825,96.2445785 8.24324,96.9920785 7.71819,97.3786785 C7.53442,97.5591785 7.2719,97.6622785 7.00938,97.6622785 Z" id="Path" fill="#4C6379"></path>
            <path d="M29.0087,8.0585285 C29.035,7.0016985 28.6675,5.9706385 27.8536,5.1715685 C26.3047,3.6507585 23.732,3.6507585 22.1569,5.2231185 C20.5817,6.7697085 20.5555,9.2700285 22.1044,10.8165785 C22.4456,11.1516785 22.8132,11.4094785 23.2332,11.5898785 L29.0087,8.0585285 Z" id="Path" fill="#4C6379"></path>
            <path d="M23.2595,12.7498785 C23.102,12.7498785 22.9183,12.7240785 22.7607,12.6467785 C22.2094,12.3889785 21.7106,12.0538785 21.2906,11.6414785 C19.2692,9.6567085 19.2954,6.3830985 21.3431,4.3725285 C23.3908,2.3619685 26.7248,2.3361885 28.7463,4.3209785 C29.7439,5.3004885 30.2952,6.6924085 30.2427,8.0843385 C30.2164,8.7287585 29.6651,9.2442785 29.0088,9.2185085 C28.3525,9.1927285 27.8274,8.6514285 27.8537,8.0070085 C27.8799,7.2337185 27.5912,6.5377585 27.0399,5.9964485 C25.9635,4.9396185 24.1521,4.9396185 23.0495,6.0479985 C21.9469,7.1306085 21.9207,8.9091885 22.997,9.9660285 C23.2333,10.1979785 23.4958,10.3784785 23.7846,10.5073785 C24.3884,10.7908785 24.6509,11.4868785 24.3621,12.0796785 C24.1259,12.4920785 23.7058,12.7498785 23.2595,12.7498785 Z" id="Path" fill="#4C6379"></path>
            <path d="M65.8408,23.1118785 C66.5758,23.1634785 67.2584,23.4211785 67.7572,23.8593785 C68.3085,24.3233785 68.571,24.9162785 68.5185,25.5348785 C68.4398,26.6948785 67.2584,27.5454785 65.762,27.5454785 C65.6833,27.5454785 65.5783,27.5454785 65.4995,27.5454785 C63.9244,27.4423785 62.7168,26.3597785 62.8218,25.1482785 C62.9268,23.9109785 64.2394,23.0087785 65.8408,23.1118785 Z" id="Path" fill="#4C6379"></path>
        </g>
    </g>
</svg>
